<?xml version="1.0" encoding="UTF-8"?>
<svg id="Layer_1" data-name="Layer 1" xmlns="http://www.w3.org/2000/svg" viewBox="0 0 426 288">
  <defs>
    <style>
      .cls-1 {
        fill: #d9d9d9;
      }

      .cls-1, .cls-2 {
        stroke-width: 0px;
      }

      .cls-2 {
        fill: #fff;
      }
    </style>
  </defs>
  <g>
    <rect class="cls-2" x="22" y="23" width="387" height="247" rx="6.45" ry="6.45"/>
    <path class="cls-1" d="M402.55,27c1.35,0,2.45,1.1,2.45,2.45v234.09c0,1.35-1.1,2.45-2.45,2.45H28.45c-1.35,0-2.45-1.1-2.45-2.45V29.45c0-1.35,1.1-2.45,2.45-2.45h374.09M402.55,19H28.45c-5.77,0-10.45,4.68-10.45,10.45v234.09c0,5.77,4.68,10.45,10.45,10.45h374.09c5.77,0,10.45-4.68,10.45-10.45V29.45c0-5.77-4.68-10.45-10.45-10.45h0Z"/>
  </g>
  <rect class="cls-1" x="40" y="43" width="348" height="210" rx="5.66" ry="5.66" class='image'/>
  <g class='desc'>
    <g>
      <rect class="cls-2" x="280.34" y="190" width="79.66" height="6.58" rx="2.96" ry="2.96"/>
      <path class="cls-2" d="M357.04,190h-73.74c-1.64,0-2.96,1.33-2.96,2.96v.66c0,1.64,1.33,2.96,2.96,2.96h73.74c1.64,0,2.96-1.33,2.96-2.96v-.66c0-1.64-1.33-2.96-2.96-2.96h0Z"/>
    </g>
    <g>
      <rect class="cls-2" x="280.34" y="202.07" width="79.66" height="6.58" rx="2.96" ry="2.96"/>
      <path class="cls-2" d="M357.04,202.07h-73.74c-1.64,0-2.96,1.33-2.96,2.96v.66c0,1.64,1.33,2.96,2.96,2.96h73.74c1.64,0,2.96-1.33,2.96-2.96v-.66c0-1.64-1.33-2.96-2.96-2.96h0Z"/>
    </g>
    <g>
      <rect class="cls-2" x="280.34" y="214.14" width="79.66" height="6.58" rx="2.96" ry="2.96"/>
      <path class="cls-2" d="M357.04,214.14h-73.74c-1.64,0-2.96,1.33-2.96,2.96v.66c0,1.64,1.33,2.96,2.96,2.96h73.74c1.64,0,2.96-1.33,2.96-2.96v-.66c0-1.64-1.33-2.96-2.96-2.96h0Z"/>
    </g>
    <g>
      <rect class="cls-2" x="280.34" y="226.21" width="68.66" height="6.58" rx="2.96" ry="2.96"/>
      <path class="cls-2" d="M346.04,226.21h-62.74c-1.64,0-2.96,1.33-2.96,2.96v.66c0,1.64,1.33,2.96,2.96,2.96h62.74c1.64,0,2.96-1.33,2.96-2.96v-.66c0-1.64-1.33-2.96-2.96-2.96h0Z"/>
    </g>
  </g>
</svg>