<svg id="Layer_1" data-name="Layer 1" xmlns="http://www.w3.org/2000/svg" viewBox="0 0 426 288">
  <defs>
    <style>
      .cls-1 {
        fill: #d9d9d9;
      }

      .cls-1, .cls-2 {
        stroke-width: 0px;
      }

      .cls-2 {
        fill: #fff;
      }
    </style>
  </defs>
  <g>
    <rect class="cls-2" x="22" y="23" width="387" height="247" rx="6.45" ry="6.45"/>
    <path class="cls-1" d="M402.55,27c1.35,0,2.45,1.1,2.45,2.45v234.09c0,1.35-1.1,2.45-2.45,2.45H28.45c-1.35,0-2.45-1.1-2.45-2.45V29.45c0-1.35,1.1-2.45,2.45-2.45h374.09M402.55,19H28.45c-5.77,0-10.45,4.68-10.45,10.45v234.09c0,5.77,4.68,10.45,10.45,10.45h374.09c5.77,0,10.45-4.68,10.45-10.45V29.45c0-5.77-4.68-10.45-10.45-10.45h0Z"/>
  </g>
  <g >
    <rect class="cls-1" x="42.5" y="40" width="79.99" height="58" rx="2.96" ry="2.96" class='image'/>
    <rect class="cls-1" x="42.5" y="107" width="79.99" height="40" rx="2.96" ry="2.96" class='image'/>
    <rect class="cls-1" x="42.5" y="156" width="79.99" height="97" rx="2.96" ry="2.96" class='image'/>
    <rect class="cls-1" x="131.17" y="40" width="79.99" height="58" rx="2.96" ry="2.96" class='image'/>
    <rect class="cls-1" x="131.17" y="107" width="79.99" height="67" rx="2.96" ry="2.96" class='image'/>
    <rect class="cls-1" x="131.17" y="182" width="79.99" height="71" rx="2.96" ry="2.96" class='image'/>
    <rect class="cls-1" x="219.84" y="40" width="79.99" height="109" rx="2.96" ry="2.96" class='image'/>
    <rect class="cls-1" x="220.02" y="159" width="79.99" height="40" rx="2.96" ry="2.96" class='image'/>
    <rect class="cls-1" x="219.84" y="208" width="79.99" height="45" rx="2.96" ry="2.96" class='image'/>
    <rect class="cls-1" x="308.51" y="40" width="79.99" height="45" rx="2.96" ry="2.96" class='image'/>
    <rect class="cls-1" x="308.51" y="94" width="79.99" height="80" rx="2.96" ry="2.96" class='image'/>
    <rect class="cls-1" x="308.51" y="182" width="79.99" height="71" rx="2.96" ry="2.96" class='image'/>
  </g>
</svg>