<svg width="8" height="20" viewBox="0 0 8 20" fill="none" xmlns="http://www.w3.org/2000/svg">
<path fill-rule="evenodd" clip-rule="evenodd" d="M0 1C0 0.447715 0.447715 0 1 0H2C2.55228 0 3 0.447715 3 1C3 1.55228 2.55228 2 2 2H1C0.447715 2 0 1.55228 0 1ZM5 1C5 0.447715 5.44772 0 6 0H7C7.55228 0 8 0.447715 8 1C8 1.55228 7.55228 2 7 2H6C5.44772 2 5 1.55228 5 1ZM0 7C0 6.44772 0.447715 6 1 6H2C2.55228 6 3 6.44772 3 7C3 7.55228 2.55228 8 2 8H1C0.447715 8 0 7.55228 0 7ZM5 7C5 6.44772 5.44772 6 6 6H7C7.55228 6 8 6.44772 8 7C8 7.55228 7.55228 8 7 8H6C5.44772 8 5 7.55228 5 7ZM0 13C0 12.4477 0.447715 12 1 12H2C2.55228 12 3 12.4477 3 13C3 13.5523 2.55228 14 2 14H1C0.447715 14 0 13.5523 0 13ZM5 13C5 12.4477 5.44772 12 6 12H7C7.55228 12 8 12.4477 8 13C8 13.5523 7.55228 14 7 14H6C5.44772 14 5 13.5523 5 13Z" fill="black"/>
<path d="M0 19C0 18.4477 0.447715 18 1 18H2C2.55228 18 3 18.4477 3 19C3 19.5523 2.55228 20 2 20H1C0.447715 20 0 19.5523 0 19Z" fill="black"/>
<path d="M5 19C5 18.4477 5.44772 18 6 18H7C7.55228 18 8 18.4477 8 19C8 19.5523 7.55228 20 7 20H6C5.44772 20 5 19.5523 5 19Z" fill="black"/>
</svg>
