<?xml version="1.0" standalone="no"?>
<!DOCTYPE svg PUBLIC "-//W3C//DTD SVG 20010904//EN"
 "http://www.w3.org/TR/2001/REC-SVG-20010904/DTD/svg10.dtd">
<svg version="1.0" xmlns="http://www.w3.org/2000/svg"
 width="720.000000pt" height="720.000000pt" viewBox="0 0 720.000000 720.000000"
 preserveAspectRatio="xMidYMid meet">
<metadata>
Created by potrace 1.14, written by Peter Selinger 2001-2017
</metadata>
<g transform="translate(0.000000,720.000000) scale(0.100000,-0.100000)"
fill="#000000" stroke="none">
<path d="M585 6550 c-11 -4 -38 -13 -60 -20 -203 -64 -359 -229 -409 -432 -17
-69 -21 -144 -31 -673 -3 -137 -7 -356 -10 -485 -6 -297 -14 -678 -20 -1025
-3 -148 -7 -369 -10 -490 -3 -121 -7 -348 -10 -505 -3 -157 -7 -391 -10 -520
-3 -129 -8 -377 -11 -550 -4 -173 -7 -459 -8 -635 l-1 -320 29 -57 c35 -70 94
-128 166 -165 55 -27 56 -28 283 -30 288 -4 322 4 425 101 24 23 55 66 70 96
l27 55 -2 355 c-1 331 -6 615 -18 1205 -11 544 -17 873 -18 1097 -1 131 -4
238 -7 238 -3 0 -6 89 -6 198 -1 108 -3 305 -4 437 -1 140 3 254 9 273 5 18
10 33 10 35 0 5 22 64 33 87 34 69 131 172 203 214 107 63 248 85 374 59 59
-12 162 -58 169 -75 2 -5 8 -8 12 -8 10 0 283 -177 685 -445 159 -106 275
-190 282 -204 22 -47 3 -74 -133 -186 -26 -22 -80 -67 -120 -100 -39 -33 -93
-78 -120 -100 -26 -22 -56 -48 -66 -57 -10 -10 -22 -18 -27 -18 -5 0 -11 -4
-13 -9 -1 -4 -32 -32 -68 -62 -36 -29 -74 -61 -85 -71 -11 -9 -83 -69 -160
-133 -77 -65 -169 -143 -204 -174 -35 -31 -67 -58 -71 -61 -4 -3 -18 -25 -31
-50 -31 -60 -32 -165 -3 -230 27 -59 252 -289 314 -320 62 -32 158 -33 222 -3
33 16 115 92 290 267 133 135 362 365 508 511 258 260 295 293 308 280 9 -9 7
-112 -14 -850 -2 -88 -6 -239 -9 -335 -7 -264 -15 -569 -20 -720 -13 -427 -17
-587 -19 -691 -1 -63 -6 -121 -10 -127 -4 -7 -4 -12 1 -12 4 0 8 -34 8 -75 0
-41 -4 -75 -8 -75 -5 0 -5 -4 -2 -10 3 -5 7 -37 10 -70 6 -102 75 -191 172
-224 62 -21 384 -21 447 0 91 31 179 145 178 231 0 21 -1 54 -1 73 -1 19 -1
42 0 50 0 8 -2 92 -5 185 -8 227 -15 486 -22 735 -8 299 -12 459 -19 700 -9
292 -11 376 -20 730 -13 514 -13 490 10 490 13 0 198 -183 760 -751 213 -215
303 -299 335 -314 63 -28 160 -26 222 5 57 28 286 260 313 317 13 26 19 61 19
113 0 64 -4 83 -28 127 -16 29 -38 59 -50 67 -12 7 -33 24 -47 37 -29 27 -80
70 -229 194 -58 47 -127 106 -155 130 -27 24 -63 54 -80 66 -16 13 -32 26 -35
29 -5 6 -151 128 -209 175 -14 11 -37 32 -53 47 -15 14 -28 23 -28 20 0 -4 -4
-2 -8 3 -4 6 -25 25 -47 44 -148 126 -155 133 -155 170 0 20 6 43 13 51 7 9
113 82 237 164 443 291 617 404 640 416 13 7 29 17 34 21 55 45 150 93 226
113 79 21 213 11 297 -23 72 -28 122 -61 179 -118 74 -73 102 -119 139 -224
21 -60 20 -333 -10 -1774 -7 -347 -16 -815 -20 -1050 -2 -115 -6 -382 -10
-592 -6 -367 -6 -385 14 -436 37 -101 85 -154 182 -204 l54 -28 232 -1 c242
-2 271 2 348 43 49 26 116 96 138 143 40 89 40 72 22 1020 -3 189 -9 466 -20
1095 -3 132 -7 366 -10 520 -3 154 -7 384 -10 510 -5 220 -12 608 -20 1040
-16 867 -21 1005 -34 1053 -5 18 -10 35 -10 37 -12 121 -165 315 -306 387
-128 67 -321 84 -455 41 -8 -2 -16 -4 -18 -4 -5 2 -147 -72 -152 -79 -3 -4
-39 -31 -80 -61 -41 -29 -76 -57 -78 -61 -2 -5 -8 -8 -13 -8 -8 0 -27 -14 -63
-45 -6 -6 -28 -21 -48 -35 -21 -14 -38 -28 -38 -32 0 -5 -5 -8 -11 -8 -6 0
-21 -9 -33 -19 -11 -11 -99 -77 -194 -148 -165 -122 -379 -282 -432 -322 -14
-11 -101 -76 -195 -145 -93 -69 -180 -134 -191 -143 -12 -10 -56 -43 -98 -73
-42 -30 -76 -58 -76 -62 0 -5 -4 -8 -10 -8 -7 0 -165 -114 -240 -173 -8 -7
-49 -37 -90 -67 -41 -30 -79 -58 -85 -63 -53 -41 -186 -135 -208 -147 -35 -18
-44 -7 -41 52 1 24 5 113 8 198 4 85 9 187 11 225 2 39 7 122 10 185 4 63 8
147 10 185 2 39 7 129 10 200 4 72 8 168 11 215 10 215 7 274 -18 317 -38 66
-63 91 -120 121 -53 28 -57 29 -234 30 -211 2 -259 -8 -322 -69 -57 -56 -85
-119 -85 -199 0 -69 10 -285 28 -615 3 -49 8 -142 11 -205 8 -160 12 -225 13
-225 1 0 4 -65 7 -145 3 -80 7 -167 8 -195 3 -61 -2 -85 -19 -85 -18 0 -323
221 -701 508 -74 56 -139 102 -144 102 -4 0 -10 4 -12 8 -1 5 -84 69 -183 142
-99 74 -184 138 -190 142 -55 45 -238 178 -245 178 -6 0 -10 4 -10 9 0 5 -17
20 -37 32 -21 13 -40 26 -43 29 -9 12 -631 472 -678 502 -86 55 -197 85 -317
85 -50 0 -99 -3 -110 -7z"/>
</g>
</svg>
