<svg width="23" height="24" viewBox="0 0 23 24" fill="none" xmlns="http://www.w3.org/2000/svg">
<path d="M11.2147 1.87812C11.3045 1.60172 11.6955 1.60172 11.7853 1.87812L14.0146 8.73901C14.0547 8.86262 14.1699 8.9463 14.2999 8.9463H21.5138C21.8045 8.9463 21.9253 9.31819 21.6902 9.48901L15.854 13.7293C15.7488 13.8057 15.7048 13.9411 15.745 14.0647L17.9742 20.9256C18.064 21.202 17.7477 21.4318 17.5126 21.261L11.6763 17.0207C11.5712 16.9443 11.4288 16.9443 11.3237 17.0207L5.48744 21.261C5.25233 21.4318 4.93598 21.202 5.02579 20.9256L7.25503 14.0647C7.29519 13.9411 7.25119 13.8057 7.14604 13.7293L1.30982 9.48901C1.07471 9.31819 1.19554 8.9463 1.48616 8.9463H8.70013C8.83009 8.9463 8.94528 8.86262 8.98544 8.73901L11.2147 1.87812Z" stroke="black" stroke-width="1.6" stroke-linejoin="round"/>
</svg>
