<svg width="82" height="105" viewBox="0 0 82 105" fill="none" xmlns="http://www.w3.org/2000/svg">
<path d="M0.794922 0.651855H25.8069L25.8186 0.651938L79.0999 0.652838C80.2599 0.652838 82 0.652838 82 1.7892V24.5165C82 25.4256 81.0333 25.6528 80.5499 25.6528H71.9081C71.8889 25.6533 71.8694 25.6535 71.8497 25.6535H43.7436L74.5643 56.473L74.5627 56.4746L81.3613 63.2729C81.5673 63.4789 81.8123 64.0578 81.1447 64.7254L64.4527 81.4168C63.6181 82.2514 62.8765 81.5098 62.3822 81.0155L50.0227 68.6564L50.0242 68.6548L26.9979 45.6293V54.3007C26.9979 54.3647 26.9938 54.4373 26.9843 54.515V83.3364C26.9843 83.8197 26.7461 84.7864 25.7932 84.7864H1.9723C0.78125 84.7864 0.78125 83.0464 0.78125 81.8864V52.8871H0.794919L0.794922 0.651855Z" fill="white"/>
</svg>
